{
    "asset" : {
        "generator" : "Khronos glTF Blender I/O v1.8.19",
        "version" : "2.0"
    },
    "scene" : 0,
    "scenes" : [
        {
            "name" : "Scene",
            "nodes" : [
                0,
                1,
                2
            ]
        }
    ],
    "nodes" : [
        {
            "mesh" : 0,
            "name" : "GorundFin_01",
            "rotation" : [
                0,
                -0.10922054946422577,
                0,
                0.9940175414085388
            ],
            "scale" : [
                0.009999999776482582,
                0.009999999776482582,
                0.009999999776482582
            ],
            "translation" : [
                -0.6052265167236328,
                0,
                0.4195868670940399
            ]
        },
        {
            "mesh" : 1,
            "name" : "TreeFin_01",
            "rotation" : [
                0.7070740461349487,
                0.00680506369099021,
                -0.006805064622312784,
                0.7070740461349487
            ],
            "scale" : [
                0.009999999776482582,
                0.009999999776482582,
                0.009999999776482582
            ],
            "translation" : [
                -2.8002519607543945,
                0.05074050650000572,
                -1.5260976552963257
            ]
        },
        {
            "mesh" : 2,
            "name" : "Grass_02",
            "rotation" : [
                0.7071068286895752,
                0,
                0,
                0.7071067094802856
            ],
            "scale" : [
                0.009999999776482582,
                0.009999999776482582,
                0.009999999776482582
            ]
        }
    ],
    "materials" : [
        {
            "doubleSided" : true,
            "name" : "Gound",
            "pbrMetallicRoughness" : {
                "baseColorTexture" : {
                    "index" : 0
                },
                "metallicFactor" : 0
            }
        },
        {
            "doubleSided" : true,
            "name" : "Tree",
            "pbrMetallicRoughness" : {
                "baseColorTexture" : {
                    "index" : 1
                },
                "metallicFactor" : 0
            }
        }
    ],
    "meshes" : [
        {
            "name" : "Mesh",
            "primitives" : [
                {
                    "attributes" : {
                        "POSITION" : 0,
                        "NORMAL" : 1,
                        "TEXCOORD_0" : 2
                    },
                    "indices" : 3,
                    "material" : 0
                }
            ]
        },
        {
            "name" : "Mesh.001",
            "primitives" : [
                {
                    "attributes" : {
                        "POSITION" : 4,
                        "NORMAL" : 5,
                        "TEXCOORD_0" : 6
                    },
                    "indices" : 7,
                    "material" : 1
                }
            ]
        },
        {
            "name" : "Mesh.002",
            "primitives" : [
                {
                    "attributes" : {
                        "POSITION" : 8,
                        "NORMAL" : 9,
                        "TEXCOORD_0" : 10
                    },
                    "indices" : 11,
                    "material" : 0
                }
            ]
        }
    ],
    "textures" : [
        {
            "sampler" : 0,
            "source" : 0
        },
        {
            "sampler" : 0,
            "source" : 1
        }
    ],
    "images" : [
        {
            "mimeType" : "image/png",
            "name" : "Floor_Grass_04_02",
            "uri" : "Textures/Floor_Grass_04_02.png"
        },
        {
            "mimeType" : "image/png",
            "name" : "Tree",
            "uri" : "Textures/Tree.png"
        }
    ],
    "accessors" : [
        {
            "bufferView" : 0,
            "componentType" : 5126,
            "count" : 4939,
            "max" : [
                323.0793762207031,
                12.497932434082031,
                279.1385498046875
            ],
            "min" : [
                -417.5372009277344,
                -165.2493133544922,
                -224.95033264160156
            ],
            "type" : "VEC3"
        },
        {
            "bufferView" : 1,
            "componentType" : 5126,
            "count" : 4939,
            "type" : "VEC3"
        },
        {
            "bufferView" : 2,
            "componentType" : 5126,
            "count" : 4939,
            "type" : "VEC2"
        },
        {
            "bufferView" : 3,
            "componentType" : 5123,
            "count" : 27843,
            "type" : "SCALAR"
        },
        {
            "bufferView" : 4,
            "componentType" : 5126,
            "count" : 9095,
            "max" : [
                261.225830078125,
                222.83999633789062,
                28.673126220703125
            ],
            "min" : [
                -224.92623901367188,
                -162.46337890625,
                -390.56683349609375
            ],
            "type" : "VEC3"
        },
        {
            "bufferView" : 5,
            "componentType" : 5126,
            "count" : 9095,
            "type" : "VEC3"
        },
        {
            "bufferView" : 6,
            "componentType" : 5126,
            "count" : 9095,
            "type" : "VEC2"
        },
        {
            "bufferView" : 7,
            "componentType" : 5123,
            "count" : 48498,
            "type" : "SCALAR"
        },
        {
            "bufferView" : 8,
            "componentType" : 5126,
            "count" : 4743,
            "max" : [
                -84.3671875,
                80.92855834960938,
                2.128742218017578
            ],
            "min" : [
                -368.0850524902344,
                -135.08956909179688,
                -45.820648193359375
            ],
            "type" : "VEC3"
        },
        {
            "bufferView" : 9,
            "componentType" : 5126,
            "count" : 4743,
            "type" : "VEC3"
        },
        {
            "bufferView" : 10,
            "componentType" : 5126,
            "count" : 4743,
            "type" : "VEC2"
        },
        {
            "bufferView" : 11,
            "componentType" : 5123,
            "count" : 11988,
            "type" : "SCALAR"
        }
    ],
    "bufferViews" : [
        {
            "buffer" : 0,
            "byteLength" : 59268,
            "byteOffset" : 0
        },
        {
            "buffer" : 0,
            "byteLength" : 59268,
            "byteOffset" : 59268
        },
        {
            "buffer" : 0,
            "byteLength" : 39512,
            "byteOffset" : 118536
        },
        {
            "buffer" : 0,
            "byteLength" : 55686,
            "byteOffset" : 158048
        },
        {
            "buffer" : 0,
            "byteLength" : 109140,
            "byteOffset" : 213736
        },
        {
            "buffer" : 0,
            "byteLength" : 109140,
            "byteOffset" : 322876
        },
        {
            "buffer" : 0,
            "byteLength" : 72760,
            "byteOffset" : 432016
        },
        {
            "buffer" : 0,
            "byteLength" : 96996,
            "byteOffset" : 504776
        },
        {
            "buffer" : 0,
            "byteLength" : 56916,
            "byteOffset" : 601772
        },
        {
            "buffer" : 0,
            "byteLength" : 56916,
            "byteOffset" : 658688
        },
        {
            "buffer" : 0,
            "byteLength" : 37944,
            "byteOffset" : 715604
        },
        {
            "buffer" : 0,
            "byteLength" : 23976,
            "byteOffset" : 753548
        }
    ],
    "samplers" : [
        {
            "magFilter" : 9729,
            "minFilter" : 9987
        }
    ],
    "buffers" : [
        {
            "byteLength" : 777524,
            "uri" : "Scena_03_02.bin"
        }
    ]
}
