{
  "accessors": [
    {
      "bufferView": 0,
      "componentType": 5125,
      "count": 18360,
      "type": "SCALAR"
    },
    {
      "bufferView": 1,
      "componentType": 5126,
      "count": 3865,
      "max": [
        21.3156356811523,
        8.90012264251709,
        72.5329055786133
      ],
      "min": [
        3.54396438598633,
        -8.75366115570068,
        47.9849281311035
      ],
      "type": "VEC3"
    },
    {
      "bufferView": 2,
      "componentType": 5126,
      "count": 3865,
      "type": "VEC3"
    },
    {
      "bufferView": 3,
      "componentType": 5126,
      "count": 3865,
      "type": "VEC2"
    }
  ],
  "asset": {
    "generator": "Adobe Substance 3D Painter 7.2.3",
    "version": "2.0"
  },
  "bufferViews": [
    {
      "buffer": 0,
      "byteLength": 73440,
      "target": 34963
    },
    {
      "buffer": 0,
      "byteLength": 46380,
      "byteOffset": 73440,
      "target": 34962
    },
    {
      "buffer": 0,
      "byteLength": 46380,
      "byteOffset": 119820,
      "target": 34962
    },
    {
      "buffer": 0,
      "byteLength": 30920,
      "byteOffset": 166200,
      "target": 34962
    }
  ],
  "buffers": [
    {
      "byteLength": 197120,
      "uri": "Untitled.bin"
    }
  ],
  "images": [
    {
      "uri": "Material _109_baseColor.png"
    },
    {
      "uri": "Material _109_occlusionRoughnessMetallic.png"
    },
    {
      "uri": "Material _109_normal.png"
    }
  ],
  "materials": [
    {
      "alphaMode": "OPAQUE",
      "name": "Material _109",
      "normalTexture": {
        "index": 2
      },
      "occlusionTexture": {
        "index": 1
      },
      "pbrMetallicRoughness": {
        "baseColorTexture": {
          "index": 0
        },
        "metallicRoughnessTexture": {
          "index": 1
        }
      }
    }
  ],
  "meshes": [
    {
      "name": "SkorcedPaldron_2",
      "primitives": [
        {
          "attributes": {
            "NORMAL": 2,
            "POSITION": 1,
            "TEXCOORD_0": 3
          },
          "indices": 0,
          "material": 0,
          "mode": 4
        }
      ]
    }
  ],
  "nodes": [
    {
      "children": [
        1
      ],
      "name": "RootNode"
    },
    {
      "children": [
        2
      ],
      "name": "SkorcedPaldron_2",
      "rotation": [
        -0.70710676908493,
        0.0,
        0.0,
        0.70710676908493
      ],
      "scale": [
        2.32922792434692,
        2.32922792434692,
        2.32922792434692
      ],
      "translation": [
        -28.9518375396729,
        -140.356735229492,
        0.170571073889732
      ]
    },
    {
      "mesh": 0,
      "name": "SkorcedPaldron_2"
    }
  ],
  "samplers": [
    {
      "magFilter": 9729,
      "minFilter": 9985,
      "wrapS": 10497,
      "wrapT": 10497
    }
  ],
  "scene": 0,
  "scenes": [
    {
      "name": "Scene",
      "nodes": [
        0
      ]
    }
  ],
  "textures": [
    {
      "sampler": 0,
      "source": 0
    },
    {
      "sampler": 0,
      "source": 1
    },
    {
      "sampler": 0,
      "source": 2
    }
  ]
}