{
  "accessors": [
    {
      "bufferView": 0,
      "componentType": 5125,
      "count": 3660,
      "type": "SCALAR"
    },
    {
      "bufferView": 1,
      "componentType": 5126,
      "count": 2566,
      "max": [
        -9.0342960357666,
        6.22331476211548,
        62.259391784668
      ],
      "min": [
        -21.8779449462891,
        -7.11822891235352,
        48.4957809448242
      ],
      "type": "VEC3"
    },
    {
      "bufferView": 2,
      "componentType": 5126,
      "count": 2566,
      "type": "VEC3"
    },
    {
      "bufferView": 3,
      "componentType": 5126,
      "count": 2566,
      "type": "VEC2"
    }
  ],
  "asset": {
    "generator": "Adobe Substance 3D Painter 7.2.3",
    "version": "2.0"
  },
  "bufferViews": [
    {
      "buffer": 0,
      "byteLength": 14640,
      "target": 34963
    },
    {
      "buffer": 0,
      "byteLength": 30792,
      "byteOffset": 14640,
      "target": 34962
    },
    {
      "buffer": 0,
      "byteLength": 30792,
      "byteOffset": 45432,
      "target": 34962
    },
    {
      "buffer": 0,
      "byteLength": 20528,
      "byteOffset": 76224,
      "target": 34962
    }
  ],
  "buffers": [
    {
      "byteLength": 96752,
      "uri": "Untitled.bin"
    }
  ],
  "images": [
    {
      "uri": "Material _109_baseColor.png"
    },
    {
      "uri": "Material _109_occlusionRoughnessMetallic.png"
    },
    {
      "uri": "Material _109_normal.png"
    }
  ],
  "materials": [
    {
      "alphaMode": "OPAQUE",
      "name": "Material _109",
      "normalTexture": {
        "index": 2
      },
      "occlusionTexture": {
        "index": 1
      },
      "pbrMetallicRoughness": {
        "baseColorTexture": {
          "index": 0
        },
        "metallicRoughnessTexture": {
          "index": 1
        }
      }
    }
  ],
  "meshes": [
    {
      "name": "SkorcedHelmet_02",
      "primitives": [
        {
          "attributes": {
            "NORMAL": 2,
            "POSITION": 1,
            "TEXCOORD_0": 3
          },
          "indices": 0,
          "material": 0,
          "mode": 4
        }
      ]
    }
  ],
  "nodes": [
    {
      "children": [
        1
      ],
      "name": "RootNode"
    },
    {
      "children": [
        2
      ],
      "name": "SkorcedHelmet_02",
      "rotation": [
        -0.70710676908493,
        0.0,
        0.0,
        0.70710676908493
      ],
      "scale": [
        2.32922792434692,
        2.32922792434692,
        2.32922792434692
      ],
      "translation": [
        36.0008277893066,
        -128.987014770508,
        -1.04223120212555
      ]
    },
    {
      "mesh": 0,
      "name": "SkorcedHelmet_02"
    }
  ],
  "samplers": [
    {
      "magFilter": 9729,
      "minFilter": 9985,
      "wrapS": 10497,
      "wrapT": 10497
    }
  ],
  "scene": 0,
  "scenes": [
    {
      "name": "Scene",
      "nodes": [
        0
      ]
    }
  ],
  "textures": [
    {
      "sampler": 0,
      "source": 0
    },
    {
      "sampler": 0,
      "source": 1
    },
    {
      "sampler": 0,
      "source": 2
    }
  ]
}